<svg xmlns="http://www.w3.org/2000/svg" viewBox="0 0 491.52 491.52"><path d="M21.134 0C9.461 0 0 9.462 0 21.133v449.255c0 11.672 9.461 21.133 21.134 21.133h72.488V0H21.134z" fill="#3a556a"/><path d="M480.812 160.3h-40.785V40.961h40.785c5.914 0 10.708 4.794 10.708 10.708v97.923c0 5.914-4.794 10.708-10.708 10.708z" fill="#fcd462"/><path d="M480.812 279.639h-40.784V160.3h40.785c5.914 0 10.708 4.794 10.708 10.708v97.923c-.001 5.914-4.795 10.708-10.709 10.708z" fill="#44c4a1"/><path d="M480.812 398.977h-40.785V279.639h40.785c5.914 0 10.708 4.794 10.708 10.708v97.922c0 5.914-4.794 10.708-10.708 10.708z" fill="#fff"/><path d="M418.894 0H93.622v491.52L433.808 6.165A21.063 21.063 0 0 0 418.894 0z" fill="#27a2db"/><path d="M433.808 6.165L93.622 491.52h325.272c11.671 0 21.133-9.46 21.133-21.133V21.133c0-5.849-2.379-11.14-6.219-14.968z" fill="#2d93ba"/><path d="M347.532 294.096c-5.081 3.741-10.384 7.546-15.361 10.934-.19.129-.351.234-.536.36l53.6 78.767a532.62 532.62 0 0 0 15.848-13.495c2.714-2.406 3.198-6.442 1.159-9.439l-44.485-65.372c-2.3-3.379-6.933-4.179-10.225-1.755zm-30.106 19.113c-21.515 2.874-45.802-8.456-64.261-30.303-24.461-28.949-33.29-69.16-21.925-96.352l-55.552-81.636c-13.81 8.396-26.372 17.713-27.658 24.48-15.923 83.743 106.87 274.904 191.826 281.897 6.799.559 19.898-7.634 32.641-17.158l-55.071-80.928zM208.339 87.232a496.951 496.951 0 0 0-18.61 9.621l53.484 78.598.122-.084c5.081-3.458 10.73-7.072 16.23-10.483 3.485-2.163 4.456-6.783 2.148-10.174l-44.262-65.045c-2.019-2.965-5.889-4.01-9.112-2.433z" fill="#fff"/></svg>