<svg xmlns="http://www.w3.org/2000/svg" width="236" height="93.976" viewBox="0 0 236 93.976"><path fill="#FFF" d="M236 47.487l-7.459 4.239v38.297c0 2.18-1.633 3.953-3.642 3.953H3.643C1.634 93.976 0 92.203 0 90.023V3.952C0 1.773 1.634 0 3.643 0h221.256c2.009 0 3.642 1.773 3.642 3.952v39.297L236 47.487zM2.018 90.023c0 1.083.729 1.966 1.625 1.966h221.256c.896 0 1.624-.883 1.624-1.966V50.582l5.441-3.092-5.441-3.091V3.954c0-1.084-.729-1.966-1.624-1.966H3.643c-.896 0-1.625.883-1.625 1.966v86.069z"/></svg>