<svg xmlns="http://www.w3.org/2000/svg" width="236" height="94" viewBox="0 0 236 94"><defs><style>.cls-1{fill:#fff;fill-rule:evenodd}</style></defs><path id="Forma_1_copy" data-name="Forma 1 copy" class="cls-1" d="M1164 271.5l-7.46 4.238v38.3a3.808 3.808 0 0 1-3.64 3.953H931.642a3.811 3.811 0 0 1-3.642-3.956v-86.071a3.811 3.811 0 0 1 3.642-3.952H1152.9a3.808 3.808 0 0 1 3.64 3.952v39.3zm-233.982 42.535a1.823 1.823 0 0 0 1.624 1.965H1152.9a1.824 1.824 0 0 0 1.62-1.967v-39.439l5.44-3.092-5.44-3.09v-40.446a1.823 1.823 0 0 0-1.62-1.966H931.642a1.823 1.823 0 0 0-1.624 1.966v86.069z" transform="translate(-928 -224)"/></svg>