<svg xmlns="http://www.w3.org/2000/svg" width="34.398" height="44.801" viewBox="0 0 34.398 44.801"><path fill="#E9E9E0" d="M24.387 0H1.172C.523 0 0 .523 0 1.539V44c0 .276.523.801 1.172.801H33.23c.645 0 1.168-.524 1.168-.801V10.383c0-.559-.074-.738-.203-.867L24.886.207A.703.703 0 0 0 24.387 0zm0 0"/><path fill="#D9D7CA" d="M24.801.121v9.481h9.477L24.801.121zm0 0"/><path fill="#CC4B4C" d="M10.41 26.66c-.277 0-.543-.091-.773-.263-.832-.625-.946-1.319-.891-1.793.145-1.304 1.754-2.667 4.789-4.054 1.203-2.637 2.348-5.887 3.027-8.602-.796-1.738-1.574-3.992-1.007-5.312.199-.464.445-.82.906-.972.184-.062.644-.137.812-.137.407 0 .758.52 1.012.84.234.301.77.938-.301 5.442 1.078 2.226 2.609 4.496 4.07 6.046 1.051-.187 1.953-.285 2.688-.285 1.254 0 2.012.293 2.319.895.259.496.153 1.078-.308 1.726-.449.625-1.062.954-1.777.954-.973 0-2.105-.614-3.371-1.829a38.566 38.566 0 0 0-7.062 2.258c-.668 1.418-1.309 2.563-1.906 3.403-.817 1.148-1.528 1.683-2.227 1.683zm2.129-4.101c-1.707.961-2.406 1.75-2.453 2.195-.012.074-.031.266.344.555.117-.039.812-.356 2.109-2.75zm10.91-3.555c.652.504.812.758 1.238.758.188 0 .723-.008.969-.356.117-.168.164-.273.184-.332-.098-.051-.23-.156-.941-.156-.403 0-.911.02-1.45.086zm-5.976-5.266a56.559 56.559 0 0 1-2.137 6.051 39.636 39.636 0 0 1 5.195-1.613c-1.078-1.254-2.16-2.821-3.058-4.438zm-.485-6.769c-.078.027-1.062 1.406.078 2.574.758-1.691-.043-2.586-.078-2.574zM33.23 44.801H1.172A1.171 1.171 0 0 1 0 43.629v-12.43h34.398v12.43a1.17 1.17 0 0 1-1.168 1.172zm0 0"/><path fill="#FFF" d="M8.707 42.397H7.395V34.34h2.32c.34 0 .68.055 1.015.164.336.108.637.272.903.492.265.219.48.48.644.793.164.309.246.655.246 1.043 0 .41-.066.776-.207 1.108a2.327 2.327 0 0 1-.578.84c-.25.224-.547.399-.898.524a3.425 3.425 0 0 1-1.16.188h-.973v2.905zm0-7.061v3.19H9.91c.16 0 .32-.026.477-.082a1.2 1.2 0 0 0 .433-.269c.129-.121.235-.297.317-.516.078-.223.121-.5.121-.828 0-.129-.02-.281-.055-.453a1.312 1.312 0 0 0-.703-.887c-.203-.105-.473-.156-.809-.156h-.984zm11.867 2.809c0 .664-.07 1.23-.211 1.703-.145.468-.324.863-.543 1.179a2.806 2.806 0 0 1-.738.75 3.523 3.523 0 0 1-1.492.586 4.504 4.504 0 0 1-.473.035h-3.051V34.34h2.43c.676 0 1.273.104 1.785.32.516.215.941.504 1.28.859.341.355.595.766.763 1.218.168.457.25.927.25 1.408zm-3.894 3.293c.89 0 1.531-.286 1.925-.852.395-.57.59-1.396.59-2.474 0-.336-.039-.668-.117-.995a2.17 2.17 0 0 0-.465-.891c-.23-.266-.543-.48-.938-.645-.395-.164-.903-.246-1.531-.246h-.766v6.102h1.302zm7.132-6.102v2.535h3.368v.898h-3.368v3.628h-1.335V34.34h5.043v.996h-3.708zm0 0"/></svg>