<svg xmlns="http://www.w3.org/2000/svg" xmlns:xlink="http://www.w3.org/1999/xlink" width="376.801" height="402.721" viewBox="0 0 376.801 402.721"><defs><path id="a" d="M.002 0h376.799v402.721H.002z"/></defs><clipPath id="b"><use xlink:href="#a" overflow="visible"/></clipPath><path clip-path="url(#b)" fill="#E6E6E6" d="M209.678 129.191c-3.969-9.031-12.977-20.16-33.778-11.015l-18.332 8.058L140.104 86.5c-10.52-23.93-36.637-25.699-49.895-13.047-9.598 9.16-13.965 23.762-7.652 38.125l61.949 141.805c-15.086-11.426-43.906-11.297-56.805 1.988l.336-.513c-13.699 14.109-11.406 34.109 9.383 51.582l110.946 87.32 158.938-69.871.863-13.852a226.216 226.216 0 0 0-18.684-105.129l-12.031-27.367a52.419 52.419 0 0 0-2.047-4.152c-8.389-15.34-27.168-21.664-43.203-14.692l-11.941 5.196-13.496-30.707c-5.91-13.438-21.656-19.551-35.051-13.543l-22.036 9.548z"/><defs><path id="c" d="M.002 0h376.799v402.721H.002z"/></defs><clipPath id="d"><use xlink:href="#c" overflow="visible"/></clipPath><path clip-path="url(#d)" d="M356.807 201.691l-12.031-27.367a60.684 60.684 0 0 0-2.352-4.773c-5.016-9.176-13.25-16.082-23.184-19.449a41.887 41.887 0 0 0-30.228 1.261l-4.638 2.016-5.922-13.477c-.004 0-.004-.004-.004-.004l-4.363-9.929c-3.729-8.481-10.551-14.992-19.207-18.324-8.612-3.317-17.983-3.079-26.391.675l-15.383 6.664c-2.844-4.046-6.301-7.136-10.328-9.222-8.418-4.356-18.543-3.989-30.097 1.09l-11.008 4.839-14.25-32.41c-5.797-13.195-16.563-22.25-29.531-24.84-12.192-2.437-24.606 1.012-33.207 9.223-12.914 12.32-16.622 30.824-9.457 47.117L129.2 238.328c-4.519-.914-9.281-1.332-14.117-1.216-12.551.31-23.84 4.302-31.394 11.031-.497.32-.965.703-1.391 1.146-7.598 7.819-11.34 17.28-10.832 27.358.64 12.595 7.832 25.017 20.805 35.918.066.056.132.109.203.164l110.944 87.316a7.995 7.995 0 0 0 4.945 1.715 7.94 7.94 0 0 0 3.219-.68l158.939-69.867a8.013 8.013 0 0 0 4.766-6.824l.867-13.852c2.317-37.14-4.37-74.779-19.347-108.846zm-64.812 8.766a7.996 7.996 0 0 0 7.327 4.785c1.074 0 2.169-.22 3.216-.681a7.998 7.998 0 0 0 4.102-10.543l-15.82-35.992 4.574-1.992c12.375-5.383 26.562-.57 32.996 11.196a44.605 44.605 0 0 1 1.738 3.531l12.031 27.367c13.953 31.742 20.188 66.81 18.025 101.414l-.561 8.983-150.082 65.978-107.066-84.266c-9.289-7.837-14.625-16.5-15.024-24.398-.261-5.12 1.496-9.891 5.219-14.198.27-.216.527-.445.773-.699 9.575-9.863 33.457-10.543 45.93-1.398l27.559 26.469a7.978 7.978 0 0 0 5.539 2.23 7.998 7.998 0 0 0 5.543-13.77l-26.813-25.754-61.316-140.363c-5.375-12.223-.504-23.055 5.847-29.118 4.766-4.547 12.055-6.504 19.028-5.109 7.894 1.578 14.297 7.113 18.023 15.59l46.446 105.656c1.32 3 4.25 4.785 7.328 4.785a7.978 7.978 0 0 0 3.214-.679 7.998 7.998 0 0 0 4.104-10.543l-25.761-58.602 11.008-4.836c6.91-3.039 12.395-3.551 16.304-1.527 2.767 1.429 5.099 4.269 6.931 8.433l27.392 62.312a8.003 8.003 0 0 0 10.543 4.105 8.002 8.002 0 0 0 4.104-10.547l-24.155-54.945 14.655-6.351c.03-.012.062-.024.095-.04 4.5-2.015 9.522-2.148 14.145-.367a18.4 18.4 0 0 1 10.309 9.832l32.55 74.052z"/><path d="M324.077 326.211c-3.078 0-6.018-1.789-7.328-4.789a7.997 7.997 0 0 1 4.109-10.539l7.895-3.461a7.997 7.997 0 1 1 6.426 14.647l-7.891 3.466a8.01 8.01 0 0 1-3.211.676z"/><defs><path id="e" d="M.002 0h376.799v402.721H.002z"/></defs><clipPath id="f"><use xlink:href="#e" overflow="visible"/></clipPath><path clip-path="url(#f)" d="M215.854 373.854a8.002 8.002 0 0 1-3.219-15.328l84.285-36.965a7.998 7.998 0 1 1 6.426 14.648l-84.285 36.969a7.927 7.927 0 0 1-3.207.676z"/><defs><path id="g" d="M.002 0h376.799v402.721H.002z"/></defs><clipPath id="h"><use xlink:href="#g" overflow="visible"/></clipPath><path clip-path="url(#h)" d="M96.943 42.703a8.009 8.009 0 0 1-7.828-6.387l-5.48-26.539A7.993 7.993 0 0 1 89.854.328a7.994 7.994 0 0 1 9.449 6.215l5.48 26.539a7.996 7.996 0 0 1-6.215 9.453 8.008 8.008 0 0 1-1.625.168z"/><defs><path id="i" d="M.002 0h376.799v402.721H.002z"/></defs><clipPath id="j"><use xlink:href="#i" overflow="visible"/></clipPath><path clip-path="url(#j)" d="M13.522 41.481a7.916 7.916 0 0 1-4.204-1.204l-5.527-3.418a7.999 7.999 0 0 1-2.59-11.015 8.004 8.004 0 0 1 11.016-2.59l5.523 3.422a8 8 0 0 1 2.59 11.015 8.002 8.002 0 0 1-6.808 3.79z"/><path d="M57.318 70.496a7.965 7.965 0 0 1-4.386-1.316L35.865 57.957a8.005 8.005 0 0 1-2.289-11.082 8 8 0 0 1 11.082-2.285l17.067 11.223a7.997 7.997 0 1 1-4.407 14.683zm-34.902 53.156a8 8 0 0 1-7.824-6.382c-.895-4.329 1.89-8.563 6.215-9.454l26.539-5.48a8.001 8.001 0 0 1 9.453 6.219 7.994 7.994 0 0 1-6.215 9.449l-26.539 5.48a7.961 7.961 0 0 1-1.629.168zm35.211 63.418a7.96 7.96 0 0 1-4.387-1.316 7.997 7.997 0 0 1-2.289-11.078l14.891-22.641a8 8 0 0 1 11.082-2.289 7.995 7.995 0 0 1 2.285 11.078l-14.891 22.641a7.983 7.983 0 0 1-6.691 3.605zm114.785-96.382c-3.715 0-7.047-2.602-7.824-6.383a7.997 7.997 0 0 1 6.215-9.453l17.691-3.653c4.328-.894 8.562 1.887 9.453 6.215a7.996 7.996 0 0 1-6.215 9.453l-17.695 3.653a7.993 7.993 0 0 1-1.625.168zm49.762-10.278c-3.715 0-7.047-2.601-7.824-6.383a8 8 0 0 1 6.214-9.453l5.532-1.14a8.002 8.002 0 0 1 9.453 6.218 8.006 8.006 0 0 1-6.219 9.454l-5.531 1.14a7.986 7.986 0 0 1-1.625.164zm-77.559-29.347a8.004 8.004 0 0 1-6.675-12.399l14.89-22.641a8.002 8.002 0 0 1 11.082-2.285 7.994 7.994 0 0 1 2.285 11.078l-14.89 22.641a7.99 7.99 0 0 1-6.692 3.606z"/></svg>