<svg xmlns="http://www.w3.org/2000/svg" width="362.244" height="117.872" viewBox="0 0 362.244 117.872"><path fill-rule="evenodd" clip-rule="evenodd" fill="#DF5635" d="M133.923 90.872h228.32l-13.669 27h-228.32l13.669-27z"/><path d="M0 46.361h2.347c.939-.78 1.772-1.767 2.503-2.964.626-1.04 1.213-2.301 1.76-3.783.548-1.482.822-3.262.822-5.343h8.997v50.31l-4.694 1.17v1.17h22.298v-1.17l-4.694-1.17v-50.31h8.998c0 2.081.26 3.861.782 5.343.521 1.482 1.095 2.744 1.721 3.783.73 1.197 1.59 2.184 2.582 2.964h2.347v-14.04H0v14.04zm85.711 5.616c-1.436-1.716-3.13-3.015-5.086-3.9-1.956-.884-4.056-1.326-6.298-1.326-2.087 0-3.847.365-5.281 1.092-1.435.729-2.595 1.535-3.482 2.418a14.22 14.22 0 0 0-2.582 3.51 8.698 8.698 0 0 0-1.721-2.886c-.679-.727-1.604-1.404-2.778-2.028-1.173-.624-2.673-.936-4.499-.936h-7.042v1.17l4.694 1.17v49.92l-4.694 1.17v1.17H68.85v-1.17l-4.694-1.17v-15.21c.677.573 1.487 1.092 2.425 1.56.783.416 1.734.78 2.856 1.092 1.121.312 2.359.468 3.716.468 2.555 0 4.89-.443 7.002-1.326a14.76 14.76 0 0 0 5.438-3.9c1.512-1.716 2.686-3.861 3.521-6.435.833-2.574 1.251-5.577 1.251-9.009 0-3.432-.418-6.435-1.251-9.009-.835-2.574-1.969-4.719-3.403-6.435zm-9.193 24.726c-.365 2.392-.86 4.251-1.486 5.577-.626 1.326-1.369 2.236-2.23 2.73a5.476 5.476 0 0 1-2.777.741c-.782 0-1.526-.156-2.23-.468s-1.343-.675-1.917-1.092a12.162 12.162 0 0 1-1.722-1.56v-26.91a14.981 14.981 0 0 1 1.722-3.12c.573-.78 1.303-1.494 2.19-2.145.886-.649 1.929-.975 3.129-.975.677 0 1.369.234 2.073.702.705.468 1.33 1.365 1.878 2.691s1.004 3.159 1.369 5.499c.364 2.34.548 5.356.548 9.048 0 3.796-.183 6.891-.547 9.282zM124.4 49.091l5.868 2.34-8.215 21.138-9.78-18.018a18.45 18.45 0 0 0-1.721-2.691 10.142 10.142 0 0 0-2.151-2.067c-.809-.571-1.76-1.026-2.855-1.365-1.096-.338-2.375-.507-3.834-.507h-9.78v1.17l3.912 1.17 20.342 37.44-1.564 3.9c-.731 1.767-1.409 3.249-2.034 4.446-.626 1.196-1.252 2.171-1.878 2.925-.626.753-1.265 1.312-1.917 1.677a5.976 5.976 0 0 1-1.995.702v-10.53a59.652 59.652 0 0 1-1.017-.156 64.297 64.297 0 0 0-.978-.156 7.399 7.399 0 0 0-1.134-.078c-1.774 0-3.196.546-4.264 1.638-1.069 1.092-1.604 2.625-1.604 4.602 0 2.184.651 3.9 1.956 5.148 1.303 1.248 3.13 1.872 5.477 1.872s4.472-.936 6.376-2.808c1.903-1.872 3.689-4.967 5.359-9.282l15.648-40.17 6.259-2.34v-1.17H124.4v1.17zm61.808 0l4.303 1.17v34.71H180.34v-34.71l4.303-1.17v-1.17h-21.124v1.17l4.303 1.17v34.71h-10.171v-34.71l4.303-1.17v-1.17h-21.516v1.17l4.695 1.17v34.32l-4.695 1.17v1.17h67.286v-1.17l-4.695-1.17v-34.32l4.695-1.17v-1.17h-21.516zm65.329 23.4a11.104 11.104 0 0 0-1.291-2.535c-.548-.806-1.266-1.508-2.152-2.106-.887-.597-1.944-1.079-3.168-1.443-1.226-.363-2.673-.546-4.342-.546h-2.347c.573-.207 1.146-.571 1.721-1.092.469-.416.939-.975 1.408-1.677.47-.702.861-1.599 1.174-2.691l1.956-7.02c.573-2.235 1.616-3.536 3.129-3.9v10.53c.26.104.573.183.939.234.26.052.586.091.978.117.391.027.794.039 1.212.039 1.772 0 3.194-.546 4.264-1.638 1.068-1.092 1.604-2.625 1.604-4.602 0-2.184-.653-3.9-1.956-5.148-1.304-1.248-3.129-1.872-5.477-1.872-1.774 0-3.247.546-4.421 1.638-1.173 1.092-2.047 2.626-2.621 4.602l-1.956 7.02c-.418 1.353-1.174 2.535-2.269 3.549-1.095 1.014-2.425 1.521-3.99 1.521h-2.738v-15.21l4.694-1.17v-1.17h-21.907v1.17l4.694 1.17v34.32l-4.694 1.17v1.17h21.907v-1.17l-4.694-1.17v-17.16h5.477l4.303 12.87c.573 1.769 1.682 3.315 3.325 4.641s3.924 1.989 6.846 1.989h8.215v-1.17l-3.912-1.17-3.911-12.09zm36.38-23.4l4.695 1.17v4.29l-12.518 21.45v-25.74l4.694-1.17v-1.17h-21.907v1.17l4.694 1.17v34.32l-4.694 1.17v1.17h21.907v-1.17l-4.694-1.17v-4.29l12.518-21.45v25.74l-4.695 1.17v1.17h21.907v-1.17l-4.694-1.17v-34.32l4.694-1.17v-1.17h-21.907zm74.327 0v-1.17h-21.907v1.17l4.694 1.17v15.99h-11.736v-15.99l4.695-1.17v-1.17h-21.907v1.17l4.694 1.17v34.32l-4.694 1.17v1.17h21.907v-1.17l-4.695-1.17v-16.38h11.736v16.38l-4.694 1.17v1.17h21.907v-1.17l-4.695-1.17v-34.32zM76.933 29.35a10.514 10.514 0 0 1-2.074 3.025 10.154 10.154 0 0 1-2.948 2.1 8.008 8.008 0 0 1-3.448.775 8.24 8.24 0 0 1-3.648-.825c-1.133-.55-2.116-1.483-2.948-2.8-.833-1.316-1.483-3.058-1.949-5.225-.467-2.166-.7-4.882-.7-8.15 0-3.232.225-5.941.674-8.125.45-2.183 1.049-3.933 1.799-5.25.75-1.316 1.607-2.25 2.574-2.8.966-.55 1.949-.825 2.948-.825 1.665 0 3.081.459 4.247 1.375 1.167.917 2.1 1.925 2.8 3.025.832 1.3 1.482 2.75 1.949 4.35h1.999V.5h-1.25a9.19 9.19 0 0 0-1 .7c-.267.233-.558.525-.875.875-.317.35-.608.742-.874 1.175a11.011 11.011 0 0 0-2.199-1.6c-.7-.4-1.542-.775-2.523-1.125C68.505.175 67.43 0 66.265 0c-2.332 0-4.464.4-6.396 1.2a13.72 13.72 0 0 0-4.997 3.525c-1.399 1.55-2.482 3.458-3.248 5.725-.767 2.267-1.149 4.867-1.149 7.8 0 2.934.391 5.534 1.174 7.8.782 2.267 1.907 4.175 3.373 5.725 1.465 1.55 3.248 2.725 5.347 3.525 2.099.8 4.463 1.2 7.095 1.2 1.632 0 3.148-.292 4.547-.875 1.399-.583 2.615-1.366 3.647-2.35a10.785 10.785 0 0 0 2.424-3.425 9.91 9.91 0 0 0 .875-4.1h-1.25a8.57 8.57 0 0 1-.774 3.6zm26.309-16.4c-1.033-.9-2.291-1.616-3.773-2.15-1.482-.532-3.156-.8-5.021-.8-1.799 0-3.457.3-4.972.9-1.516.6-2.807 1.475-3.873 2.625-1.066 1.149-1.899 2.542-2.499 4.175-.6 1.634-.899 3.483-.899 5.55 0 4.134 1.182 7.375 3.548 9.725 2.365 2.35 5.679 3.525 9.944 3.525 1.432 0 2.731-.217 3.897-.65 1.166-.433 2.165-1.008 2.998-1.725a7.6 7.6 0 0 0 1.924-2.475c.45-.933.675-1.9.675-2.9h-1.249c0 .8-.192 1.592-.575 2.375a7.274 7.274 0 0 1-1.549 2.1A7.453 7.453 0 0 1 99.52 34.7a7.281 7.281 0 0 1-2.823.55 5.482 5.482 0 0 1-2.398-.525c-.733-.35-1.367-.933-1.899-1.75-.533-.816-.949-1.917-1.25-3.3-.3-1.383-.45-3.108-.45-5.175 1.999 0 3.914-.075 5.747-.225a81.91 81.91 0 0 0 4.847-.525c1.632-.2 3.181-.45 4.647-.75.066-.232.15-.517.25-.85a8.768 8.768 0 0 0 .25-2.15 9.301 9.301 0 0 0-.824-3.875 9.242 9.242 0 0 0-2.375-3.175zm-5.122 7.475c-.05.45-.108.859-.175 1.226-.1.399-.184.767-.25 1.1-.5.1-1.1.184-1.799.25-.6.067-1.333.125-2.198.175-.867.05-1.866.075-2.999.075 0-2.566.117-4.65.35-6.25.232-1.6.524-2.841.875-3.725.35-.883.75-1.483 1.199-1.8.45-.317.891-.476 1.324-.476.432 0 .874.134 1.324.4.45.267.849.717 1.199 1.35.35.634.641 1.459.875 2.475.232 1.017.35 2.275.35 3.775 0 .5-.025.975-.075 1.425zm36.327-7.075c-.917-1.1-1.999-1.933-3.248-2.5a9.64 9.64 0 0 0-4.023-.85c-1.333 0-2.457.233-3.373.7-.917.467-1.658.983-2.224 1.55a9.096 9.096 0 0 0-1.649 2.25 5.564 5.564 0 0 0-1.1-1.85c-.433-.467-1.024-.9-1.774-1.3s-1.708-.6-2.873-.6h-4.497v.75l2.998.75v32l-2.996.75v.75h13.991V45l-2.998-.75V34.5c.433.367.949.7 1.549 1 .5.267 1.107.5 1.824.7.716.2 1.507.3 2.374.3 1.631 0 3.123-.284 4.472-.85a9.42 9.42 0 0 0 3.473-2.5c.966-1.1 1.715-2.475 2.249-4.125.533-1.65.799-3.575.799-5.775s-.267-4.125-.799-5.775c-.535-1.65-1.259-3.025-2.175-4.125zm-5.871 15.85c-.233 1.534-.55 2.725-.95 3.575-.399.85-.874 1.434-1.424 1.75a3.495 3.495 0 0 1-1.774.475c-.5 0-.975-.1-1.424-.3-.45-.2-.858-.433-1.224-.7-.4-.3-.767-.633-1.099-1V15.75c.3-.732.666-1.4 1.099-2 .366-.5.833-.958 1.399-1.375.566-.416 1.232-.625 1.999-.625.433 0 .875.15 1.324.45s.85.875 1.199 1.725c.35.851.641 2.025.875 3.525.232 1.5.35 3.434.35 5.8-.001 2.434-.118 4.417-.35 5.95zm12.841-17.7l2.998.75v22l-2.998.75v.75h13.991V35l-2.998-.75V12h7.495c0 1.2.167 2.259.5 3.175.333.917.7 1.709 1.099 2.375a7.833 7.833 0 0 0 1.649 1.95h1.5v-8.75h-23.236v.75zm47.521 1.45c-1.033-.9-2.291-1.616-3.773-2.15-1.482-.532-3.157-.8-5.022-.8-1.799 0-3.456.3-4.972.9-1.516.6-2.807 1.475-3.873 2.625-1.066 1.149-1.899 2.542-2.499 4.175-.6 1.634-.899 3.483-.899 5.55 0 4.134 1.182 7.375 3.548 9.725 2.365 2.35 5.679 3.525 9.944 3.525 1.432 0 2.731-.217 3.897-.65 1.166-.433 2.165-1.008 2.998-1.725a7.6 7.6 0 0 0 1.924-2.475c.45-.933.675-1.9.675-2.9h-1.25c0 .8-.192 1.592-.575 2.375a7.274 7.274 0 0 1-1.549 2.1 7.465 7.465 0 0 1-2.298 1.475 7.281 7.281 0 0 1-2.823.55 5.482 5.482 0 0 1-2.398-.525c-.733-.35-1.367-.933-1.899-1.75-.533-.816-.95-1.917-1.25-3.3-.3-1.383-.45-3.108-.45-5.175 1.999 0 3.914-.075 5.747-.225a81.91 81.91 0 0 0 4.847-.525c1.632-.2 3.181-.45 4.647-.75.066-.232.15-.517.25-.85a8.768 8.768 0 0 0 .25-2.15 9.317 9.317 0 0 0-.824-3.875 9.2 9.2 0 0 0-2.373-3.175zm-5.122 7.475c-.05.45-.108.859-.175 1.226-.1.399-.184.767-.25 1.1-.5.1-1.099.184-1.799.25-.6.067-1.333.125-2.198.175-.867.05-1.866.075-2.999.075 0-2.566.117-4.65.35-6.25.232-1.6.524-2.841.875-3.725.35-.883.75-1.483 1.199-1.8.45-.316.891-.475 1.324-.475.433 0 .875.134 1.324.4s.85.717 1.199 1.35c.35.634.641 1.459.875 2.475.233 1.017.35 2.275.35 3.775 0 .499-.025.974-.075 1.424zm21.262-14.45c.6.383 1.374.692 2.323.925.95.233 2.107.35 3.473.35 2.731 0 4.664-.425 5.796-1.275 1.132-.85 1.699-1.841 1.699-2.975 0-.866-.283-1.583-.849-2.15-.567-.566-1.283-.85-2.149-.85-.2 0-.4.018-.6.05-.2.034-.383.067-.55.101l-.6.1v5.5c0-.033-.242.042-.724.225-.483.184-1.158.275-2.024.275-.867 0-1.542-.091-2.024-.275-.483-.183-.725-.258-.725-.225v-5.5l-.6-.1a17.295 17.295 0 0 0-.574-.101 3.992 3.992 0 0 0-.573-.05c-.867 0-1.583.284-2.149.85-.567.567-.85 1.284-.85 2.15 0 .567.133 1.108.4 1.625.266.518.7.967 1.3 1.35zm20.787 5.525v-.75h-13.991v.75l2.998.75V15l-7.996 13.75v-16.5l2.999-.75v-.75h-13.992v.75l2.998.75v22l-2.998.75v.75h13.992V35l-2.999-.75V31.5l7.996-13.75v16.5l-2.998.75v.75h13.991V35l-2.998-.75v-22zm-81.415 91.311h-1.407v-3.939h4.353v-2.2h-6.771v15.402h3.825c2.418 0 3.649-1.342 3.649-3.807v-1.65c0-2.464-1.231-3.806-3.649-3.806zm1.231 5.61c0 1.1-.462 1.452-1.231 1.452h-1.407v-4.863h1.407c.77 0 1.231.352 1.231 1.452v1.959zm14.99-5.391l-.879 3.389v-9.748h-2.155v15.403h2.485l2.022-7.063.989-3.785v10.848h2.177V96.671h-2.66zm17.738-6.535c-2.374 0-3.561 1.364-3.561 3.829v1.144h2.22v-1.254c0-1.1.505-1.518 1.275-1.518s1.253.374 1.253 1.76v.858c0 1.232-.55 1.628-1.451 1.628h-.726v2.201h.594c1.099 0 1.583.528 1.583 1.958v1.21c0 1.364-.484 1.738-1.253 1.738s-1.253-.418-1.253-1.519v-1.848h-2.287v1.694c0 2.464 1.231 3.873 3.605 3.873 2.375 0 3.605-1.408 3.605-3.873v-1.21c0-1.562-.483-2.706-1.693-3.234 1.166-.484 1.693-1.518 1.693-3.168v-.396c.002-2.465-1.229-3.873-3.604-3.873zm18.31 6.777h-2.748v-6.601h-2.418v15.403h2.418v-6.601h2.748v6.601h2.463V96.671h-2.463zm12.133 8.802h6.595v-2.2h-4.177v-4.511h3.319v-2.2h-3.319v-4.291h4.177v-2.201h-6.595zm19.409-15.579c-2.375 0-3.605 1.408-3.605 3.873v8.009c0 2.464 1.231 3.873 3.605 3.873s3.605-1.408 3.605-3.873v-2.046h-2.287v2.2c0 1.1-.483 1.497-1.253 1.497s-1.253-.396-1.253-1.497v-8.317c0-1.1.483-1.518 1.253-1.518s1.253.418 1.253 1.518v1.65h2.287v-1.496c0-2.465-1.231-3.873-3.605-3.873zm12.88 6.777h4.396v2.2h-4.396zm13.254-4.4h2.527v13.202h2.419V98.872h2.528v-2.201h-7.474zm20.002-2.201h-3.561v15.402h2.418v-5.787h1.143c2.418 0 3.605-1.342 3.605-3.807v-2.002c0-2.463-1.187-3.806-3.605-3.806zm1.187 5.963c0 1.1-.418 1.452-1.188 1.452h-1.143v-5.215h1.143c.77 0 1.188.352 1.188 1.453v2.31zm11.451 9.44h6.595v-2.2h-4.176v-4.511h3.319v-2.2h-3.319v-4.291h4.176v-2.201h-6.595zm21.169-8.802h-2.748v-6.601h-2.419v15.403h2.419v-6.601h2.748v6.601h2.462V96.671h-2.462zm12.131 8.802h6.596v-2.2h-4.177v-4.511h3.319v-2.2h-3.319v-4.291h4.177v-2.201h-6.596zm19.564-15.403h-3.562v15.402h2.418v-5.787h1.144c2.418 0 3.605-1.342 3.605-3.807v-2.002c0-2.463-1.187-3.806-3.605-3.806zm1.187 5.963c0 1.1-.417 1.452-1.187 1.452h-1.144v-5.215h1.144c.77 0 1.187.352 1.187 1.453v2.31z" fill="#FFF"/></svg>