<?xml version="1.0" encoding="utf-8"?>
<!-- Generator: Adobe Illustrator 16.0.4, SVG Export Plug-In . SVG Version: 6.00 Build 0)  -->
<!DOCTYPE svg PUBLIC "-//W3C//DTD SVG 1.1//EN" "http://www.w3.org/Graphics/SVG/1.1/DTD/svg11.dtd">
<svg version="1.1" id="Layer_1" xmlns="http://www.w3.org/2000/svg" xmlns:xlink="http://www.w3.org/1999/xlink" x="0px" y="0px"
	 width="236px" height="93.976px" viewBox="0 0 236 93.976" enable-background="new 0 0 236 93.976" xml:space="preserve">
<path fill="#FFFFFF" d="M236,47.487l-7.459,4.239v38.297c0,2.18-1.633,3.953-3.642,3.953H3.643C1.634,93.976,0,92.203,0,90.023
	V3.952C0,1.773,1.634,0,3.643,0h221.256c2.009,0,3.642,1.773,3.642,3.952v39.297L236,47.487z M2.018,90.023
	c0,1.083,0.729,1.966,1.625,1.966h221.256c0.896,0,1.624-0.883,1.624-1.966V50.582l5.441-3.092l-5.441-3.091V3.954
	c0-1.084-0.729-1.966-1.624-1.966H3.643c-0.896,0-1.625,0.883-1.625,1.966V90.023z"/>
</svg>
