<svg xmlns="http://www.w3.org/2000/svg" width="236" height="94" viewBox="0 0 236 94">
  <metadata><?xpacket begin="﻿" id="W5M0MpCehiHzreSzNTczkc9d"?>
<x:xmpmeta xmlns:x="adobe:ns:meta/" x:xmptk="Adobe XMP Core 5.6-c138 79.159824, 2016/09/14-01:09:01        ">
   <rdf:RDF xmlns:rdf="http://www.w3.org/1999/02/22-rdf-syntax-ns#">
      <rdf:Description rdf:about=""/>
   </rdf:RDF>
</x:xmpmeta>
                                                                                                    
                                                                                                    
                                                                                                    
                                                                                                    
                                                                                                    
                                                                                                    
                                                                                                    
                                                                                                    
                                                                                                    
                                                                                                    
                                                                                                    
                                                                                                    
                                                                                                    
                                                                                                    
                                                                                                    
                                                                                                    
                                                                                                    
                                                                                                    
                                                                                                    
                                                                                                    
                           
<?xpacket end="w"?></metadata>
<defs>
    <style>
      .cls-1 {
        fill: #fff;
        fill-rule: evenodd;
      }
    </style>
  </defs>
  <path id="Forma_1_copy" data-name="Forma 1 copy" class="cls-1" d="M1164,271.5l-7.46,4.238v38.3a3.808,3.808,0,0,1-3.64,3.953H931.642A3.811,3.811,0,0,1,928,314.035V227.964a3.811,3.811,0,0,1,3.642-3.952H1152.9a3.808,3.808,0,0,1,3.64,3.952v39.3ZM930.018,314.035A1.823,1.823,0,0,0,931.642,316H1152.9a1.824,1.824,0,0,0,1.62-1.967V274.594l5.44-3.092-5.44-3.09V227.966A1.823,1.823,0,0,0,1152.9,226H931.642a1.823,1.823,0,0,0-1.624,1.966v86.069Z" transform="translate(-928 -224)"/>
</svg>
