<?xml version="1.0" encoding="utf-8"?>
<!-- Generator: Adobe Illustrator 16.0.4, SVG Export Plug-In . SVG Version: 6.00 Build 0)  -->
<!DOCTYPE svg PUBLIC "-//W3C//DTD SVG 1.1//EN" "http://www.w3.org/Graphics/SVG/1.1/DTD/svg11.dtd">
<svg version="1.1" id="Layer_1" xmlns="http://www.w3.org/2000/svg" xmlns:xlink="http://www.w3.org/1999/xlink" x="0px" y="0px"
	 width="34.398px" height="44.801px" viewBox="0 0 34.398 44.801" enable-background="new 0 0 34.398 44.801" xml:space="preserve">
<g>
	<path fill="#E9E9E0" d="M24.387,0H1.172C0.523,0,0,0.523,0,1.539V44c0,0.276,0.523,0.801,1.172,0.801H33.23
		c0.645,0,1.168-0.524,1.168-0.801V10.383c0-0.559-0.074-0.738-0.203-0.867l-9.309-9.309C24.754,0.074,24.574,0,24.387,0L24.387,0z
		 M24.387,0"/>
	<path fill="#D9D7CA" d="M24.801,0.121v9.481h9.477L24.801,0.121z M24.801,0.121"/>
	<path fill="#CC4B4C" d="M10.41,26.66c-0.277,0-0.543-0.091-0.773-0.263c-0.832-0.625-0.946-1.319-0.891-1.793
		c0.145-1.304,1.754-2.667,4.789-4.054c1.203-2.637,2.348-5.887,3.027-8.602c-0.796-1.738-1.574-3.992-1.007-5.312
		C15.754,6.172,16,5.816,16.461,5.664c0.184-0.062,0.644-0.137,0.812-0.137c0.407,0,0.758,0.52,1.012,0.84
		c0.234,0.301,0.77,0.938-0.301,5.442c1.078,2.226,2.609,4.496,4.07,6.046c1.051-0.187,1.953-0.285,2.688-0.285
		c1.254,0,2.012,0.293,2.319,0.895c0.259,0.496,0.153,1.078-0.308,1.726c-0.449,0.625-1.062,0.954-1.777,0.954
		c-0.973,0-2.105-0.614-3.371-1.829c-2.27,0.477-4.917,1.321-7.062,2.258c-0.668,1.418-1.309,2.563-1.906,3.403
		C11.82,26.125,11.109,26.66,10.41,26.66L10.41,26.66z M12.539,22.559c-1.707,0.961-2.406,1.75-2.453,2.195
		c-0.012,0.074-0.031,0.266,0.344,0.555C10.547,25.27,11.242,24.953,12.539,22.559L12.539,22.559z M23.449,19.004
		c0.652,0.504,0.812,0.758,1.238,0.758c0.188,0,0.723-0.008,0.969-0.356c0.117-0.168,0.164-0.273,0.184-0.332
		c-0.098-0.051-0.23-0.156-0.941-0.156C24.496,18.918,23.988,18.938,23.449,19.004L23.449,19.004z M17.473,13.738
		c-0.571,1.981-1.325,4.117-2.137,6.051c1.672-0.648,3.488-1.215,5.195-1.613C19.453,16.922,18.371,15.355,17.473,13.738
		L17.473,13.738z M16.988,6.969c-0.078,0.027-1.062,1.406,0.078,2.574C17.824,7.852,17.023,6.957,16.988,6.969L16.988,6.969z
		 M16.988,6.969"/>
	<path fill="#CC4B4C" d="M33.23,44.801H1.172C0.523,44.801,0,44.276,0,43.629v-12.43h34.398v12.43
		C34.398,44.276,33.875,44.801,33.23,44.801L33.23,44.801z M33.23,44.801"/>
	<path fill="#FFFFFF" d="M8.707,42.397H7.395V34.34h2.32c0.34,0,0.68,0.055,1.015,0.164c0.336,0.108,0.637,0.272,0.903,0.492
		c0.265,0.219,0.48,0.48,0.644,0.793c0.164,0.309,0.246,0.655,0.246,1.043c0,0.41-0.066,0.776-0.207,1.108
		c-0.136,0.332-0.332,0.614-0.578,0.84c-0.25,0.224-0.547,0.399-0.898,0.524c-0.348,0.125-0.738,0.188-1.16,0.188H8.707V42.397z
		 M8.707,35.336v3.19H9.91c0.16,0,0.32-0.026,0.477-0.082c0.156-0.054,0.301-0.144,0.433-0.269c0.129-0.121,0.235-0.297,0.317-0.516
		c0.078-0.223,0.121-0.5,0.121-0.828c0-0.129-0.02-0.281-0.055-0.453c-0.039-0.172-0.113-0.336-0.226-0.492
		c-0.114-0.157-0.27-0.289-0.477-0.395c-0.203-0.105-0.473-0.156-0.809-0.156H8.707z M8.707,35.336"/>
	<path fill="#FFFFFF" d="M20.574,38.145c0,0.664-0.07,1.23-0.211,1.703c-0.145,0.468-0.324,0.863-0.543,1.179
		c-0.219,0.317-0.465,0.567-0.738,0.75c-0.273,0.185-0.539,0.321-0.793,0.411c-0.254,0.089-0.488,0.148-0.699,0.175
		c-0.211,0.024-0.367,0.035-0.473,0.035h-3.051V34.34h2.43c0.676,0,1.273,0.104,1.785,0.32c0.516,0.215,0.941,0.504,1.28,0.859
		c0.341,0.355,0.595,0.766,0.763,1.218C20.492,37.194,20.574,37.664,20.574,38.145L20.574,38.145z M16.68,41.438
		c0.89,0,1.531-0.286,1.925-0.852c0.395-0.57,0.59-1.396,0.59-2.474c0-0.336-0.039-0.668-0.117-0.995
		c-0.082-0.328-0.238-0.625-0.465-0.891c-0.23-0.266-0.543-0.48-0.938-0.645c-0.395-0.164-0.903-0.246-1.531-0.246h-0.766v6.102
		H16.68z M16.68,41.438"/>
	<path fill="#FFFFFF" d="M23.812,35.336v2.535h3.368v0.898h-3.368v3.628h-1.335V34.34h5.043v0.996H23.812z M23.812,35.336"/>
</g>
</svg>
