<?xml version="1.0" encoding="utf-8"?>
<!-- Generator: Adobe Illustrator 16.0.4, SVG Export Plug-In . SVG Version: 6.00 Build 0)  -->
<!DOCTYPE svg PUBLIC "-//W3C//DTD SVG 1.1//EN" "http://www.w3.org/Graphics/SVG/1.1/DTD/svg11.dtd">
<svg version="1.1" id="Layer_1" xmlns="http://www.w3.org/2000/svg" xmlns:xlink="http://www.w3.org/1999/xlink" x="0px" y="0px"
	 width="376.801px" height="402.721px" viewBox="0 0 376.801 402.721" enable-background="new 0 0 376.801 402.721"
	 xml:space="preserve">
<g>
	<g>
		<g>
			<defs>
				<rect id="SVGID_1_" x="0.002" width="376.799" height="402.721"/>
			</defs>
			<clipPath id="SVGID_2_">
				<use xlink:href="#SVGID_1_"  overflow="visible"/>
			</clipPath>
			<path clip-path="url(#SVGID_2_)" fill="#E6E6E6" d="M209.678,129.191c-3.969-9.031-12.977-20.16-33.778-11.015l-18.332,8.058
				L140.104,86.5c-10.52-23.93-36.637-25.699-49.895-13.047c-9.598,9.16-13.965,23.762-7.652,38.125l61.949,141.805
				c-15.086-11.426-43.906-11.297-56.805,1.988l0.336-0.513c-13.699,14.109-11.406,34.109,9.383,51.582l110.946,87.32
				l158.938-69.871l0.863-13.852c2.25-36.031-4.156-72.078-18.684-105.129l-12.031-27.367c-0.625-1.418-1.305-2.805-2.047-4.152
				c-8.389-15.34-27.168-21.664-43.203-14.692l-11.941,5.196l-13.496-30.707c-5.91-13.438-21.656-19.551-35.051-13.543
				L209.678,129.191z"/>
		</g>
		<g>
			<defs>
				<rect id="SVGID_3_" x="0.002" width="376.799" height="402.721"/>
			</defs>
			<clipPath id="SVGID_4_">
				<use xlink:href="#SVGID_3_"  overflow="visible"/>
			</clipPath>
			<path clip-path="url(#SVGID_4_)" d="M356.807,201.691l-12.031-27.367c-0.711-1.621-1.504-3.226-2.352-4.773
				c-5.016-9.176-13.25-16.082-23.184-19.449c-9.902-3.36-20.638-2.911-30.228,1.261l-4.638,2.016l-5.922-13.477
				c-0.004,0-0.004-0.004-0.004-0.004l-4.363-9.929c-3.729-8.481-10.551-14.992-19.207-18.324
				c-8.612-3.317-17.983-3.079-26.391,0.675l-15.383,6.664c-2.844-4.046-6.301-7.136-10.328-9.222
				c-8.418-4.356-18.543-3.989-30.097,1.09l-11.008,4.839l-14.25-32.41c-5.797-13.195-16.563-22.25-29.531-24.84
				c-12.192-2.437-24.606,1.012-33.207,9.223c-12.914,12.32-16.622,30.824-9.457,47.117L129.2,238.328
				c-4.519-0.914-9.281-1.332-14.117-1.216c-12.551,0.31-23.84,4.302-31.394,11.031c-0.497,0.32-0.965,0.703-1.391,1.146
				c-7.598,7.819-11.34,17.28-10.832,27.358c0.64,12.595,7.832,25.017,20.805,35.918c0.066,0.056,0.132,0.109,0.203,0.164
				l110.944,87.316c1.435,1.129,3.181,1.715,4.945,1.715c1.09,0,2.188-0.223,3.219-0.68l158.939-69.867
				c2.74-1.207,4.576-3.84,4.766-6.824l0.867-13.852C378.471,273.397,371.784,235.758,356.807,201.691L356.807,201.691z
				 M291.995,210.457c1.315,3,4.25,4.785,7.327,4.785c1.074,0,2.169-0.22,3.216-0.681c4.043-1.776,5.883-6.5,4.102-10.543
				l-15.82-35.992l4.574-1.992c12.375-5.383,26.562-0.57,32.996,11.196c0.629,1.144,1.211,2.332,1.738,3.531l12.031,27.367
				c13.953,31.742,20.188,66.81,18.025,101.414l-0.561,8.983l-150.082,65.978l-107.066-84.266
				c-9.289-7.837-14.625-16.5-15.024-24.398c-0.261-5.12,1.496-9.891,5.219-14.198c0.27-0.216,0.527-0.445,0.773-0.699
				c9.575-9.863,33.457-10.543,45.93-1.398l27.559,26.469c1.55,1.488,3.547,2.23,5.539,2.23c2.101,0,4.199-0.824,5.773-2.461
				c3.059-3.184,2.957-8.25-0.23-11.309l-26.813-25.754L89.885,108.356c-5.375-12.223-0.504-23.055,5.847-29.118
				c4.766-4.547,12.055-6.504,19.028-5.109c7.894,1.578,14.297,7.113,18.023,15.59l46.446,105.656c1.32,3,4.25,4.785,7.328,4.785
				c1.074,0,2.167-0.219,3.214-0.679c4.047-1.778,5.883-6.5,4.104-10.543l-25.761-58.602l11.008-4.836
				c6.91-3.039,12.395-3.551,16.304-1.527c2.767,1.429,5.099,4.269,6.931,8.433l27.392,62.312c1.319,2.996,4.25,4.781,7.328,4.781
				c1.077,0,2.168-0.219,3.215-0.676c4.047-1.781,5.883-6.5,4.104-10.547l-24.155-54.945l14.655-6.351
				c0.03-0.012,0.062-0.024,0.095-0.04c4.5-2.015,9.522-2.148,14.145-0.367c4.648,1.789,8.309,5.282,10.309,9.832L291.995,210.457z"
				/>
		</g>
	</g>
	<path d="M324.077,326.211c-3.078,0-6.018-1.789-7.328-4.789c-1.777-4.047,0.066-8.766,4.109-10.539l7.895-3.461
		c4.047-1.776,8.766,0.065,10.539,4.109c1.773,4.047-0.066,8.766-4.113,10.538l-7.891,3.466
		C326.241,325.992,325.151,326.211,324.077,326.211L324.077,326.211z"/>
	<g>
		<g>
			<defs>
				<rect id="SVGID_5_" x="0.002" width="376.799" height="402.721"/>
			</defs>
			<clipPath id="SVGID_6_">
				<use xlink:href="#SVGID_5_"  overflow="visible"/>
			</clipPath>
			<path clip-path="url(#SVGID_6_)" d="M215.854,373.854c-3.082,0-6.016-1.789-7.332-4.789c-1.773-4.047,0.066-8.766,4.113-10.539
				l84.285-36.965c4.047-1.776,8.766,0.066,10.539,4.109c1.773,4.047-0.066,8.766-4.113,10.539l-84.285,36.969
				C218.018,373.638,216.928,373.854,215.854,373.854L215.854,373.854z"/>
		</g>
		<g>
			<defs>
				<rect id="SVGID_7_" x="0.002" width="376.799" height="402.721"/>
			</defs>
			<clipPath id="SVGID_8_">
				<use xlink:href="#SVGID_7_"  overflow="visible"/>
			</clipPath>
			<path clip-path="url(#SVGID_8_)" d="M96.943,42.703c-3.714,0-7.046-2.605-7.828-6.387l-5.48-26.539
				c-0.895-4.328,1.89-8.558,6.219-9.449c4.324-0.894,8.558,1.887,9.449,6.215l5.48,26.539c0.895,4.328-1.886,8.559-6.215,9.453
				C98.022,42.648,97.479,42.703,96.943,42.703L96.943,42.703z"/>
		</g>
		<g>
			<defs>
				<rect id="SVGID_9_" x="0.002" width="376.799" height="402.721"/>
			</defs>
			<clipPath id="SVGID_10_">
				<use xlink:href="#SVGID_9_"  overflow="visible"/>
			</clipPath>
			<path clip-path="url(#SVGID_10_)" d="M13.522,41.481c-1.438,0-2.895-0.387-4.204-1.204l-5.527-3.418
				c-3.758-2.328-4.918-7.257-2.59-11.015c2.328-3.758,7.258-4.914,11.016-2.59l5.523,3.422c3.758,2.328,4.918,7.258,2.59,11.015
				C18.818,40.133,16.197,41.481,13.522,41.481L13.522,41.481z"/>
		</g>
	</g>
	<path d="M57.318,70.496c-1.507,0-3.031-0.426-4.386-1.316L35.865,57.957c-3.691-2.43-4.715-7.391-2.289-11.082
		c2.43-3.691,7.391-4.715,11.082-2.285l17.067,11.223c3.691,2.429,4.715,7.39,2.289,11.082
		C62.475,69.231,59.924,70.496,57.318,70.496L57.318,70.496z"/>
	<path d="M22.416,123.652c-3.715,0-7.043-2.601-7.824-6.382c-0.895-4.329,1.89-8.563,6.215-9.454l26.539-5.48
		c4.332-0.891,8.558,1.891,9.453,6.219c0.894,4.324-1.887,8.558-6.215,9.449l-26.539,5.48
		C23.498,123.598,22.955,123.652,22.416,123.652L22.416,123.652z"/>
	<path d="M57.627,187.07c-1.508,0-3.031-0.425-4.387-1.316c-3.691-2.426-4.718-7.387-2.289-11.078l14.891-22.641
		c2.426-3.691,7.387-4.719,11.082-2.289c3.691,2.426,4.715,7.387,2.285,11.078l-14.891,22.641
		C62.783,185.805,60.229,187.07,57.627,187.07L57.627,187.07z"/>
	<path d="M172.412,90.688c-3.715,0-7.047-2.602-7.824-6.383c-0.895-4.328,1.887-8.559,6.215-9.453l17.691-3.653
		c4.328-0.894,8.562,1.887,9.453,6.215c0.896,4.328-1.887,8.559-6.215,9.453l-17.695,3.653
		C173.494,90.633,172.947,90.688,172.412,90.688L172.412,90.688z"/>
	<path d="M222.174,80.41c-3.715,0-7.047-2.601-7.824-6.383c-0.895-4.324,1.887-8.558,6.214-9.453l5.532-1.14
		c4.328-0.891,8.559,1.89,9.453,6.218c0.891,4.325-1.891,8.559-6.219,9.454l-5.531,1.14C223.256,80.359,222.709,80.41,222.174,80.41
		L222.174,80.41z"/>
	<path d="M144.615,51.063c-1.508,0-3.031-0.426-4.386-1.317c-3.692-2.43-4.715-7.39-2.289-11.082l14.89-22.641
		c2.43-3.691,7.391-4.714,11.082-2.285c3.692,2.426,4.715,7.387,2.285,11.078l-14.89,22.641
		C149.772,49.793,147.221,51.063,144.615,51.063L144.615,51.063z"/>
</g>
</svg>
