<?xml version="1.0" encoding="utf-8"?>
<!-- Generator: Adobe Illustrator 16.0.4, SVG Export Plug-In . SVG Version: 6.00 Build 0)  -->
<!DOCTYPE svg PUBLIC "-//W3C//DTD SVG 1.1//EN" "http://www.w3.org/Graphics/SVG/1.1/DTD/svg11.dtd">
<svg version="1.1" id="Layer_1" xmlns="http://www.w3.org/2000/svg" xmlns:xlink="http://www.w3.org/1999/xlink" x="0px" y="0px"
	 width="362.244px" height="117.872px" viewBox="0 0 362.244 117.872" enable-background="new 0 0 362.244 117.872"
	 xml:space="preserve">
<path fill-rule="evenodd" clip-rule="evenodd" fill="#DF5635" d="M133.923,90.872h228.32l-13.669,27h-228.32L133.923,90.872z"/>
<g>
	<path fill="#FFFFFF" d="M0,46.361h2.347c0.939-0.78,1.772-1.767,2.503-2.964c0.626-1.04,1.213-2.301,1.76-3.783
		c0.548-1.482,0.822-3.262,0.822-5.343h8.997v50.31l-4.694,1.17v1.17h22.298v-1.17l-4.694-1.17v-50.31h8.998
		c0,2.081,0.26,3.861,0.782,5.343c0.521,1.482,1.095,2.744,1.721,3.783c0.73,1.197,1.59,2.184,2.582,2.964h2.347v-14.04H0V46.361z"
		/>
	<path fill="#FFFFFF" d="M85.711,51.977c-1.436-1.716-3.13-3.015-5.086-3.9c-1.956-0.884-4.056-1.326-6.298-1.326
		c-2.087,0-3.847,0.365-5.281,1.092c-1.435,0.729-2.595,1.535-3.482,2.418c-1.044,1.041-1.904,2.211-2.582,3.51
		c-0.366-1.04-0.939-2.001-1.721-2.886c-0.679-0.727-1.604-1.404-2.778-2.028c-1.173-0.624-2.673-0.936-4.499-0.936h-7.042v1.17
		l4.694,1.17v49.92l-4.694,1.17v1.17H68.85v-1.17l-4.694-1.17v-15.21c0.677,0.573,1.487,1.092,2.425,1.56
		c0.783,0.416,1.734,0.78,2.856,1.092c1.121,0.312,2.359,0.468,3.716,0.468c2.555,0,4.89-0.443,7.002-1.326
		c2.112-0.884,3.924-2.184,5.438-3.9c1.512-1.716,2.686-3.861,3.521-6.435c0.833-2.574,1.251-5.577,1.251-9.009
		c0-3.432-0.418-6.435-1.251-9.009C88.279,55.838,87.145,53.693,85.711,51.977z M76.518,76.703c-0.365,2.392-0.86,4.251-1.486,5.577
		c-0.626,1.326-1.369,2.236-2.23,2.73c-0.86,0.495-1.787,0.741-2.777,0.741c-0.782,0-1.526-0.156-2.23-0.468
		s-1.343-0.675-1.917-1.092c-0.626-0.468-1.201-0.987-1.722-1.56v-26.91c0.47-1.144,1.043-2.184,1.722-3.12
		c0.573-0.78,1.303-1.494,2.19-2.145c0.886-0.649,1.929-0.975,3.129-0.975c0.677,0,1.369,0.234,2.073,0.702
		c0.705,0.468,1.33,1.365,1.878,2.691s1.004,3.159,1.369,5.499c0.364,2.34,0.548,5.356,0.548,9.048
		C77.065,71.217,76.882,74.312,76.518,76.703z"/>
	<path fill="#FFFFFF" d="M124.4,49.091l5.868,2.34l-8.215,21.138l-9.78-18.018c-0.522-0.987-1.095-1.884-1.721-2.691
		c-0.625-0.805-1.343-1.494-2.151-2.067c-0.809-0.571-1.76-1.026-2.855-1.365c-1.096-0.338-2.375-0.507-3.834-0.507h-9.78v1.17
		l3.912,1.17l20.342,37.44l-1.564,3.9c-0.731,1.767-1.409,3.249-2.034,4.446c-0.626,1.196-1.252,2.171-1.878,2.925
		c-0.626,0.753-1.265,1.312-1.917,1.677c-0.653,0.363-1.318,0.597-1.995,0.702v-10.53c-0.365-0.053-0.704-0.105-1.017-0.156
		c-0.313-0.052-0.639-0.105-0.978-0.156c-0.34-0.053-0.717-0.078-1.134-0.078c-1.774,0-3.196,0.546-4.264,1.638
		c-1.069,1.092-1.604,2.625-1.604,4.602c0,2.184,0.651,3.9,1.956,5.148c1.303,1.248,3.13,1.872,5.477,1.872s4.472-0.936,6.376-2.808
		c1.903-1.872,3.689-4.967,5.359-9.282l15.648-40.17l6.259-2.34v-1.17H124.4V49.091z"/>
	<polygon fill="#FFFFFF" points="186.208,49.091 190.511,50.261 190.511,84.971 180.34,84.971 180.34,50.261 184.643,49.091 
		184.643,47.921 163.519,47.921 163.519,49.091 167.822,50.261 167.822,84.971 157.651,84.971 157.651,50.261 161.954,49.091 
		161.954,47.921 140.438,47.921 140.438,49.091 145.133,50.261 145.133,84.581 140.438,85.751 140.438,86.921 207.724,86.921 
		207.724,85.751 203.029,84.581 203.029,50.261 207.724,49.091 207.724,47.921 186.208,47.921 	"/>
	<path fill="#FFFFFF" d="M251.537,72.491c-0.313-0.884-0.744-1.729-1.291-2.535c-0.548-0.806-1.266-1.508-2.152-2.106
		c-0.887-0.597-1.944-1.079-3.168-1.443c-1.226-0.363-2.673-0.546-4.342-0.546h-2.347c0.573-0.207,1.146-0.571,1.721-1.092
		c0.469-0.416,0.939-0.975,1.408-1.677c0.47-0.702,0.861-1.599,1.174-2.691l1.956-7.02c0.573-2.235,1.616-3.536,3.129-3.9v10.53
		c0.26,0.104,0.573,0.183,0.939,0.234c0.26,0.052,0.586,0.091,0.978,0.117c0.391,0.027,0.794,0.039,1.212,0.039
		c1.772,0,3.194-0.546,4.264-1.638c1.068-1.092,1.604-2.625,1.604-4.602c0-2.184-0.653-3.9-1.956-5.148
		c-1.304-1.248-3.129-1.872-5.477-1.872c-1.774,0-3.247,0.546-4.421,1.638c-1.173,1.092-2.047,2.626-2.621,4.602l-1.956,7.02
		c-0.418,1.353-1.174,2.535-2.269,3.549c-1.095,1.014-2.425,1.521-3.99,1.521h-2.738v-15.21l4.694-1.17v-1.17h-21.907v1.17
		l4.694,1.17v34.32l-4.694,1.17v1.17h21.907v-1.17l-4.694-1.17v-17.16h5.477l4.303,12.87c0.573,1.769,1.682,3.315,3.325,4.641
		s3.924,1.989,6.846,1.989h8.215v-1.17l-3.912-1.17L251.537,72.491z"/>
	<polygon fill="#FFFFFF" points="287.917,49.091 292.612,50.261 292.612,54.551 280.094,76.001 280.094,50.261 284.788,49.091 
		284.788,47.921 262.881,47.921 262.881,49.091 267.575,50.261 267.575,84.581 262.881,85.751 262.881,86.921 284.788,86.921 
		284.788,85.751 280.094,84.581 280.094,80.291 292.612,58.841 292.612,84.581 287.917,85.751 287.917,86.921 309.824,86.921 
		309.824,85.751 305.13,84.581 305.13,50.261 309.824,49.091 309.824,47.921 287.917,47.921 	"/>
	<polygon fill="#FFFFFF" points="362.244,49.091 362.244,47.921 340.337,47.921 340.337,49.091 345.031,50.261 345.031,66.251 
		333.295,66.251 333.295,50.261 337.99,49.091 337.99,47.921 316.083,47.921 316.083,49.091 320.777,50.261 320.777,84.581 
		316.083,85.751 316.083,86.921 337.99,86.921 337.99,85.751 333.295,84.581 333.295,68.201 345.031,68.201 345.031,84.581 
		340.337,85.751 340.337,86.921 362.244,86.921 362.244,85.751 357.549,84.581 357.549,50.261 	"/>
</g>
<g>
	<path fill="#FFFFFF" d="M76.933,29.35c-0.517,1.134-1.208,2.142-2.074,3.025c-0.867,0.884-1.849,1.583-2.948,2.1
		c-1.099,0.517-2.249,0.775-3.448,0.775c-1.299,0-2.516-0.275-3.648-0.825c-1.133-0.55-2.116-1.483-2.948-2.8
		c-0.833-1.316-1.483-3.058-1.949-5.225c-0.467-2.166-0.7-4.882-0.7-8.15c0-3.232,0.225-5.941,0.674-8.125
		c0.45-2.183,1.049-3.933,1.799-5.25c0.75-1.316,1.607-2.25,2.574-2.8c0.966-0.55,1.949-0.825,2.948-0.825
		c1.665,0,3.081,0.459,4.247,1.375C72.627,3.542,73.56,4.55,74.26,5.65c0.832,1.3,1.482,2.75,1.949,4.35h1.999V0.5h-1.25
		c-0.333,0.2-0.667,0.434-1,0.7c-0.267,0.233-0.558,0.525-0.875,0.875c-0.317,0.35-0.608,0.742-0.874,1.175
		c-0.633-0.6-1.367-1.133-2.199-1.6c-0.7-0.4-1.542-0.775-2.523-1.125C68.505,0.175,67.43,0,66.265,0c-2.332,0-4.464,0.4-6.396,1.2
		c-1.932,0.8-3.598,1.975-4.997,3.525c-1.399,1.55-2.482,3.458-3.248,5.725c-0.767,2.267-1.149,4.867-1.149,7.8
		c0,2.934,0.391,5.534,1.174,7.8c0.782,2.267,1.907,4.175,3.373,5.725c1.465,1.55,3.248,2.725,5.347,3.525
		c2.099,0.8,4.463,1.2,7.095,1.2c1.632,0,3.148-0.292,4.547-0.875c1.399-0.583,2.615-1.366,3.647-2.35
		c1.032-0.982,1.84-2.125,2.424-3.425c0.583-1.3,0.875-2.667,0.875-4.1h-1.25C77.708,27.017,77.449,28.217,76.933,29.35z"/>
	<path fill="#FFFFFF" d="M103.242,12.95c-1.033-0.9-2.291-1.616-3.773-2.15c-1.482-0.532-3.156-0.8-5.021-0.8
		c-1.799,0-3.457,0.3-4.972,0.9c-1.516,0.6-2.807,1.475-3.873,2.625c-1.066,1.149-1.899,2.542-2.499,4.175
		c-0.6,1.634-0.899,3.483-0.899,5.55c0,4.134,1.182,7.375,3.548,9.725c2.365,2.35,5.679,3.525,9.944,3.525
		c1.432,0,2.731-0.217,3.897-0.65c1.166-0.433,2.165-1.008,2.998-1.725c0.833-0.716,1.474-1.542,1.924-2.475
		c0.45-0.933,0.675-1.9,0.675-2.9h-1.249c0,0.8-0.192,1.592-0.575,2.375c-0.383,0.784-0.899,1.484-1.549,2.1
		c-0.649,0.617-1.416,1.108-2.298,1.475c-0.883,0.367-1.824,0.55-2.823,0.55c-0.867,0-1.667-0.175-2.398-0.525
		c-0.733-0.35-1.367-0.933-1.899-1.75c-0.533-0.816-0.949-1.917-1.25-3.3c-0.3-1.383-0.45-3.108-0.45-5.175
		c1.999,0,3.914-0.075,5.747-0.225c1.832-0.15,3.448-0.325,4.847-0.525c1.632-0.2,3.181-0.45,4.647-0.75
		c0.066-0.232,0.15-0.517,0.25-0.85c0.066-0.267,0.125-0.575,0.175-0.925s0.075-0.758,0.075-1.225c0-1.366-0.274-2.658-0.824-3.875
		C105.065,14.909,104.274,13.85,103.242,12.95z M98.12,20.425c-0.05,0.45-0.108,0.859-0.175,1.226c-0.1,0.399-0.184,0.767-0.25,1.1
		c-0.5,0.1-1.1,0.184-1.799,0.25c-0.6,0.067-1.333,0.125-2.198,0.175c-0.867,0.05-1.866,0.075-2.999,0.075
		c0-2.566,0.117-4.65,0.35-6.25c0.232-1.6,0.524-2.841,0.875-3.725c0.35-0.883,0.75-1.483,1.199-1.8
		C93.573,11.159,94.014,11,94.447,11c0.432,0,0.874,0.134,1.324,0.4c0.45,0.267,0.849,0.717,1.199,1.35
		c0.35,0.634,0.641,1.459,0.875,2.475c0.232,1.017,0.35,2.275,0.35,3.775C98.195,19.5,98.17,19.975,98.12,20.425z"/>
	<path fill="#FFFFFF" d="M134.447,13.35c-0.917-1.1-1.999-1.933-3.248-2.5c-1.25-0.566-2.591-0.85-4.023-0.85
		c-1.333,0-2.457,0.233-3.373,0.7c-0.917,0.467-1.658,0.983-2.224,1.55c-0.667,0.667-1.216,1.417-1.649,2.25
		c-0.233-0.666-0.6-1.283-1.1-1.85c-0.433-0.467-1.024-0.9-1.774-1.3c-0.75-0.4-1.708-0.6-2.873-0.6h-4.497v0.75l2.998,0.75v32
		L109.688,45v0.75h13.991V45l-2.998-0.75V34.5c0.433,0.367,0.949,0.7,1.549,1c0.5,0.267,1.107,0.5,1.824,0.7
		c0.716,0.2,1.507,0.3,2.374,0.3c1.631,0,3.123-0.284,4.472-0.85c1.349-0.566,2.506-1.4,3.473-2.5
		c0.966-1.1,1.715-2.475,2.249-4.125c0.533-1.65,0.799-3.575,0.799-5.775s-0.267-4.125-0.799-5.775
		C136.087,15.825,135.363,14.45,134.447,13.35z M128.576,29.2c-0.233,1.534-0.55,2.725-0.95,3.575
		c-0.399,0.85-0.874,1.434-1.424,1.75c-0.55,0.317-1.142,0.475-1.774,0.475c-0.5,0-0.975-0.1-1.424-0.3
		c-0.45-0.2-0.858-0.433-1.224-0.7c-0.4-0.3-0.767-0.633-1.099-1V15.75c0.3-0.732,0.666-1.4,1.099-2
		c0.366-0.5,0.833-0.958,1.399-1.375c0.566-0.416,1.232-0.625,1.999-0.625c0.433,0,0.875,0.15,1.324,0.45s0.85,0.875,1.199,1.725
		c0.35,0.851,0.641,2.025,0.875,3.525c0.232,1.5,0.35,3.434,0.35,5.8C128.925,25.684,128.808,27.667,128.576,29.2z"/>
	<path fill="#FFFFFF" d="M141.417,11.5l2.998,0.75v22L141.417,35v0.75h13.991V35l-2.998-0.75V12h7.495c0,1.2,0.167,2.259,0.5,3.175
		c0.333,0.917,0.7,1.709,1.099,2.375c0.466,0.768,1.016,1.417,1.649,1.95h1.5v-8.75h-23.236V11.5z"/>
	<path fill="#FFFFFF" d="M188.938,12.95c-1.033-0.9-2.291-1.616-3.773-2.15c-1.482-0.532-3.157-0.8-5.022-0.8
		c-1.799,0-3.456,0.3-4.972,0.9c-1.516,0.6-2.807,1.475-3.873,2.625c-1.066,1.149-1.899,2.542-2.499,4.175
		c-0.6,1.634-0.899,3.483-0.899,5.55c0,4.134,1.182,7.375,3.548,9.725c2.365,2.35,5.679,3.525,9.944,3.525
		c1.432,0,2.731-0.217,3.897-0.65c1.166-0.433,2.165-1.008,2.998-1.725c0.833-0.716,1.474-1.542,1.924-2.475
		c0.45-0.933,0.675-1.9,0.675-2.9h-1.25c0,0.8-0.192,1.592-0.575,2.375c-0.383,0.784-0.899,1.484-1.549,2.1
		c-0.649,0.617-1.417,1.108-2.298,1.475c-0.883,0.367-1.824,0.55-2.823,0.55c-0.867,0-1.667-0.175-2.398-0.525
		c-0.733-0.35-1.367-0.933-1.899-1.75c-0.533-0.816-0.95-1.917-1.25-3.3c-0.3-1.383-0.45-3.108-0.45-5.175
		c1.999,0,3.914-0.075,5.747-0.225c1.832-0.15,3.448-0.325,4.847-0.525c1.632-0.2,3.181-0.45,4.647-0.75
		c0.066-0.232,0.15-0.517,0.25-0.85c0.066-0.267,0.125-0.575,0.175-0.925c0.05-0.35,0.075-0.758,0.075-1.225
		c0-1.366-0.275-2.658-0.824-3.875C190.762,14.909,189.97,13.85,188.938,12.95z M183.816,20.425c-0.05,0.45-0.108,0.859-0.175,1.226
		c-0.1,0.399-0.184,0.767-0.25,1.1c-0.5,0.1-1.099,0.184-1.799,0.25c-0.6,0.067-1.333,0.125-2.198,0.175
		c-0.867,0.05-1.866,0.075-2.999,0.075c0-2.566,0.117-4.65,0.35-6.25c0.232-1.6,0.524-2.841,0.875-3.725
		c0.35-0.883,0.75-1.483,1.199-1.8c0.45-0.316,0.891-0.475,1.324-0.475c0.433,0,0.875,0.134,1.324,0.4s0.85,0.717,1.199,1.35
		c0.35,0.634,0.641,1.459,0.875,2.475c0.233,1.017,0.35,2.275,0.35,3.775C183.891,19.5,183.866,19.975,183.816,20.425z"/>
	<path fill="#FFFFFF" d="M205.078,5.975c0.6,0.383,1.374,0.692,2.323,0.925c0.95,0.233,2.107,0.35,3.473,0.35
		c2.731,0,4.664-0.425,5.796-1.275c1.132-0.85,1.699-1.841,1.699-2.975c0-0.866-0.283-1.583-0.849-2.15
		C216.953,0.284,216.237,0,215.371,0c-0.2,0-0.4,0.018-0.6,0.05c-0.2,0.034-0.383,0.067-0.55,0.101c-0.2,0.033-0.399,0.067-0.6,0.1
		v5.5c0-0.033-0.242,0.042-0.724,0.225c-0.483,0.184-1.158,0.275-2.024,0.275c-0.867,0-1.542-0.091-2.024-0.275
		c-0.483-0.183-0.725-0.258-0.725-0.225v-5.5c-0.2-0.033-0.399-0.066-0.6-0.1c-0.167-0.033-0.358-0.066-0.574-0.101
		C206.734,0.018,206.543,0,206.377,0c-0.867,0-1.583,0.284-2.149,0.85c-0.567,0.567-0.85,1.284-0.85,2.15
		c0,0.567,0.133,1.108,0.4,1.625C204.044,5.143,204.478,5.592,205.078,5.975z"/>
	<polygon fill="#FFFFFF" points="225.865,11.5 225.865,10.75 211.874,10.75 211.874,11.5 214.872,12.25 214.872,15 206.876,28.75 
		206.876,12.25 209.875,11.5 209.875,10.75 195.883,10.75 195.883,11.5 198.881,12.25 198.881,34.25 195.883,35 195.883,35.75 
		209.875,35.75 209.875,35 206.876,34.25 206.876,31.5 214.872,17.75 214.872,34.25 211.874,35 211.874,35.75 225.865,35.75 
		225.865,35 222.867,34.25 222.867,12.25 	"/>
</g>
<g>
	<path fill="#FFFFFF" d="M144.45,102.811h-1.407v-3.939h4.353v-2.2h-6.771v15.402h3.825c2.418,0,3.649-1.342,3.649-3.807v-1.65
		C148.099,104.153,146.868,102.811,144.45,102.811z M145.681,108.421c0,1.1-0.462,1.452-1.231,1.452h-1.407v-4.863h1.407
		c0.77,0,1.231,0.352,1.231,1.452V108.421z"/>
	<polygon fill="#FFFFFF" points="160.671,103.03 159.792,106.419 159.792,96.671 157.637,96.671 157.637,112.074 160.122,112.074 
		162.144,105.011 163.133,101.226 163.133,112.074 165.31,112.074 165.31,96.671 162.65,96.671 	"/>
	<path fill="#FFFFFF" d="M178.409,96.495c-2.374,0-3.561,1.364-3.561,3.829v1.144h2.22v-1.254c0-1.1,0.505-1.518,1.275-1.518
		s1.253,0.374,1.253,1.76v0.858c0,1.232-0.55,1.628-1.451,1.628h-0.726v2.201h0.594c1.099,0,1.583,0.528,1.583,1.958v1.21
		c0,1.364-0.484,1.738-1.253,1.738s-1.253-0.418-1.253-1.519v-1.848h-2.287v1.694c0,2.464,1.231,3.873,3.605,3.873
		c2.375,0,3.605-1.408,3.605-3.873v-1.21c0-1.562-0.483-2.706-1.693-3.234c1.166-0.484,1.693-1.518,1.693-3.168v-0.396
		C182.015,97.903,180.784,96.495,178.409,96.495z"/>
	<polygon fill="#FFFFFF" points="196.719,103.272 193.971,103.272 193.971,96.671 191.553,96.671 191.553,112.074 193.971,112.074 
		193.971,105.473 196.719,105.473 196.719,112.074 199.182,112.074 199.182,96.671 196.719,96.671 	"/>
	<polygon fill="#FFFFFF" points="208.852,112.074 215.447,112.074 215.447,109.874 211.27,109.874 211.27,105.363 214.589,105.363 
		214.589,103.163 211.27,103.163 211.27,98.872 215.447,98.872 215.447,96.671 208.852,96.671 	"/>
	<path fill="#FFFFFF" d="M228.261,96.495c-2.375,0-3.605,1.408-3.605,3.873v8.009c0,2.464,1.231,3.873,3.605,3.873
		s3.605-1.408,3.605-3.873v-2.046h-2.287v2.2c0,1.1-0.483,1.497-1.253,1.497s-1.253-0.396-1.253-1.497v-8.317
		c0-1.1,0.483-1.518,1.253-1.518s1.253,0.418,1.253,1.518v1.65h2.287v-1.496C231.866,97.903,230.635,96.495,228.261,96.495z"/>
	<rect x="241.141" y="103.272" fill="#FFFFFF" width="4.396" height="2.2"/>
	<polygon fill="#FFFFFF" points="254.395,98.872 256.922,98.872 256.922,112.074 259.341,112.074 259.341,98.872 261.869,98.872 
		261.869,96.671 254.395,96.671 	"/>
	<path fill="#FFFFFF" d="M274.397,96.671h-3.561v15.402h2.418v-5.787h1.143c2.418,0,3.605-1.342,3.605-3.807v-2.002
		C278.002,98.014,276.815,96.671,274.397,96.671z M275.584,102.634c0,1.1-0.418,1.452-1.188,1.452h-1.143v-5.215h1.143
		c0.77,0,1.188,0.352,1.188,1.453V102.634z"/>
	<polygon fill="#FFFFFF" points="287.035,112.074 293.63,112.074 293.63,109.874 289.454,109.874 289.454,105.363 292.773,105.363 
		292.773,103.163 289.454,103.163 289.454,98.872 293.63,98.872 293.63,96.671 287.035,96.671 	"/>
	<polygon fill="#FFFFFF" points="308.204,103.272 305.456,103.272 305.456,96.671 303.037,96.671 303.037,112.074 305.456,112.074 
		305.456,105.473 308.204,105.473 308.204,112.074 310.666,112.074 310.666,96.671 308.204,96.671 	"/>
	<polygon fill="#FFFFFF" points="320.335,112.074 326.931,112.074 326.931,109.874 322.754,109.874 322.754,105.363 
		326.073,105.363 326.073,103.163 322.754,103.163 322.754,98.872 326.931,98.872 326.931,96.671 320.335,96.671 	"/>
	<path fill="#FFFFFF" d="M339.899,96.671h-3.562v15.402h2.418v-5.787h1.144c2.418,0,3.605-1.342,3.605-3.807v-2.002
		C343.504,98.014,342.317,96.671,339.899,96.671z M341.086,102.634c0,1.1-0.417,1.452-1.187,1.452h-1.144v-5.215h1.144
		c0.77,0,1.187,0.352,1.187,1.453V102.634z"/>
</g>
</svg>
